# xmcd
#
# Track frame offsets:
#	150
#	13950
#	42599
#	53249
#	76049
#	106498
#
# Disc length: 1722 seconds
#
# Revision: 0
# Processed by: cddbd v1.5.2PL0 Copyright (c) Steve Scherf et al.
# Submitted via: EasyCDDAExtractor 9.0.0.1
#
DISCID=4706b806
DTITLE=Ozzy Osbourne - Civic Coliseum Knoxville TN 30-07-86 Disc 2
DYEAR=1986
DGENRE=Hard Rock
TTITLE0=Secret Loser
TTITLE1=Drum Solo
TTITLE2=Secret Loser Reprise
TTITLE3=Iron Man
TTITLE4=Crazy Train
TTITLE5=Paranoid
EXTD=
EXTT0=
EXTT1=
EXTT2=
EXTT3=
EXTT4=
EXTT5=
PLAYORDER=
